<svg version="1.2" xmlns="http://www.w3.org/2000/svg" viewBox="0 0 1024 1024" width="1024" height="1024">
	<style>
		.s0 { fill: #000000 } 
		.s1 { fill: #ffffff } 
		.s2 { fill: #5c70f4 } 
	</style>
	<path id="Layer 1" fill-rule="evenodd" class="s0" d="m103 0h818c56.89 0 103 46.11 103 103v818c0 56.89-46.11 103-103 103h-818c-56.89 0-103-46.11-103-103v-818c0-56.89 46.11-103 103-103z"/>
	<path id="{S}" class="s1" aria-label="{S}"  d="m246.4 729.7h18.5v39.2h-16.9q-67.7 0-90.9-20.2-22.8-20.1-22.8-80.2v-65.1q0-41-14.7-56.8-14.7-15.8-53.3-15.8h-16.6v-38.9h16.6q38.9 0 53.3-15.5 14.7-15.8 14.7-56.4v-65.3q0-60.1 22.8-80 23.2-20.1 90.9-20.1h16.9v38.9h-18.5q-38.4 0-50.1 12-11.7 12-11.7 50.3v67.5q0 42.7-12.5 62.1-12.2 19.3-42.2 26.1 30.2 7.3 42.5 26.6 12.2 19.4 12.2 61.8v67.5q0 38.4 11.7 50.3 11.7 12 50.1 12zm512.3 39.2v-39.2h19q38.1 0 49.5-11.7 11.7-11.7 11.7-50.6v-67.5q0-42.4 12.3-61.8 12.2-19.3 42.4-26.6-30.2-6.8-42.4-26.1-12.3-19.4-12.3-62.1v-67.5q0-38.6-11.7-50.3-11.4-12-49.5-12h-19v-38.9h17.1q67.8 0 90.3 20.1 22.9 19.9 22.9 80v65.3q0 40.6 14.7 56.4 14.7 15.5 53.3 15.5h16.9v38.9h-16.9q-38.6 0-53.3 15.8-14.7 15.8-14.7 56.8v65.1q0 60.1-22.9 80.2-22.5 20.2-90.3 20.2z"/>
	<path id="{S}" class="s2" aria-label="{S}"  d="m633.2 285.1v53.6q-31.3-15-59-22.3-27.8-7.4-53.6-7.4-44.9 0-69.4 17.4-24.2 17.5-24.2 49.6 0 26.9 16 40.8 16.4 13.6 61.5 22l33.2 6.8q61.5 11.7 90.6 41.4 29.4 29.4 29.4 78.9 0 59-39.7 89.5-39.5 30.5-115.9 30.5-28.9 0-61.5-6.5-32.4-6.6-67.2-19.4v-56.6q33.4 18.8 65.5 28.3 32.2 9.6 63.2 9.6 47 0 72.6-18.5 25.6-18.5 25.6-52.8 0-30-18.5-46.8-18.2-16.9-60.1-25.3l-33.5-6.6q-61.5-12.2-89-38.3-27.5-26.2-27.5-72.7 0-53.9 37.9-84.9 38.1-31 104.7-31 28.6 0 58.2 5.2 29.7 5.1 60.7 15.5z"/>
</svg>